<svg xmlns="http://www.w3.org/2000/svg" width="1024" height="724" xmlns:v="https://vecta.io/nano"><path d="M825.425 128.029l2.577 1.295 2.98 1.486 3.236 1.637 3.437 1.72 7.394 3.714 11.765 5.907 18.691 9.385 33.25 16.691 11.617 5.835 43.739 21.403L968 199v21l6 2 17 9v257c-14 6-14 6-16 6v23l-15.212 2.535-2.138.356-4.451.742-2.32.387-2.364.394-2.395.399-29.719 4.953-2.595.433-2.602.434-2.607.435-10.432 1.739-2.598.433-7.749 1.291-2.56.427L831 541l-2.626.524c-4.145.585-8.162.62-12.342.595l-2.756-.009c-12.539-.083-25.07-.527-37.602-.942l-11.366-.367-19.861-.644-29.537-.958-49.721-1.612-49.25-1.599-3.101-.1-15.594-.505-110.363-3.58-106.982-3.472-3.328-.108-26.509-.859-114.629-3.716-18.477-.599-67.841-2.202-26.768-.869-22.226-.722-11.159-.362L35 517l.845-1.898 1.109-2.49 1.099-2.469 2.24-5.045 1.054-2.355 1.17-2.676C44 497 44 497 45.729 494.437c7.507-11.957 6.632-25.74 6.957-39.416l.355-10.986.633-20.77.802-25.88.296-9.098.072-2.228.398-13.029.181-6.155.212-7.471c.186-6.19.579-12.261 1.364-18.405 7.668-3.103 15.603-5.211 23.566-7.402l4.692-1.301 10.043-2.78 24.197-6.708 8.308-2.306 50.03-14.017 6.51-1.836L215 296l92.678-26.038 5.07-1.407 6.705-1.852 3.661-1.011C326 265 326 265 329 265l-.937-3.062c-7.505-24.517-2.305-56.246 9.25-78.75C345.853 168.145 357.834 156.26 373 148l1.845-1.018c13.395-7.326 13.395-7.326 21.407-5.064l3.459 1.27 1.858.673 5.806 2.14 3.965 1.445L421 151v-23l8-.25 2.406-.11c14.256-.206 29.023 5.842 42.531 9.923l2.608.786C566.03 165.37 566.03 165.37 582 192v2l3.494-1.024 98.944-28.538 25.375-7.242 3.178-.907 65.31-18.718 7.885-2.266 12.219-3.513 4.445-1.278 6.021-1.733 3.391-.976c5.326-1.566 7.939-1.993 13.163.224z" fill="#0f0f0f"/><path d="M785 153v39l12-3 10.063-2.187 2.506-.537 2.404-.506 2.133-.45C816 185 816 185 819 185v92c-23 3-23 3-35 3v34l11.064-1.316c5.447-.605 10.82-.739 16.293-.711l2.234.006L819 312l.391 44.314.182 20.586.175 19.938.067 7.533L820 457l-1.757.025-2.304.034-2.284.033-4.63.088c-8.586.059-16.255-1.148-25.026-2.18v47c-10.123 0-10.123 0-14.498-.456l-3.009-.306-3.211-.34-3.466-.355-7.431-.766-20.041-2.047-2.108-.214-33.517-3.216-2.263-.207-21.931-1.987-6.159-.557-7.534-.675-3.362-.306-2.924-.261c-2.265-.274-4.343-.733-6.545-1.308l1.28-171.133.414-28.162.455-30.968.19-12.976.229-15.178.081-5.507c.165-11.715.612-23.382 1.351-35.076 13.713-4.101 27.463-7.959 41.329-11.51l25.592-6.906 6.333-1.756 22.394-6.369C781.121 153 781.121 153 785 153z" fill="#fdfdfd"/><path d="M825.425 128.029l2.577 1.295 2.98 1.486 3.236 1.637 3.437 1.72 7.394 3.714 11.765 5.907 18.691 9.385 33.25 16.691 11.617 5.835 43.739 21.403L968 199v21l6 2 17 9v256l-67.539 3.789c-3.694.115-7.351.355-11.032.691-6.249.533-12.491.826-18.757 1.055l-3.379.13-10.543.397-7.207.275L855 494l-.764-98.774-.09-11.785-.018-2.369-.291-37.476-.298-38.742-.168-21.639L853 163l-8.602 2.387-2.44.677-15.795 4.456C824 171 824 171 820 171l-1-43-4-1c4.053-1.351 6.542-.619 10.425 1.029z" fill="#979797"/><path d="M601 206v30l14.778-3.949 2.8-.738 2.856-.762C624 230 624 230 628 230l-.344 51.134-.094 6.46-2.212 102.408-.975 41.186-.121 5.393L624 448h-28l-1 37-17-1-7.43-.43-44.996-3.333c-9.78-.872-19.546-1.613-29.363-1.947-4.152-.146-8.132-.499-12.212-1.291l-.062-8.75-.025-2.383c-.023-5.922.218-11.808.537-17.719.652-12.196.971-24.4 1.31-36.608l3.093-92.447.373-9.955.181-4.838 1.261-37.976c.27-9.122.687-18.221 1.332-27.324 29.106-9.779 29.106-9.779 42.059-13.43 12.332-3.457 12.332-3.457 24.43-7.645 3.939-1.452 7.954-2.638 11.973-3.852l7.641-2.367 2.12-.67 4.046-1.287C596.155 206 596.155 206 601 206z" fill="#fdfdfd"/><path d="M430 139c14.35 0 26.405 5.939 36.832 15.609C483.755 173.27 484.753 198.175 484 222l-.059 3.355c-.986 21.19-9.072 41.754-22.941 57.645l-2.101 1.58c-2.896 3.689-2.555 7.235-2.618 11.806l-.085 2.81L456 308l-.145 5.491-.408 19.084-.167 8.195-.041 2.4c-.106 5.034-.376 10.041-.715 15.065-.621 9.374-.873 18.755-1.125 28.145l-.267 9.475-.756 26.901-.47 16.55-.171 6.266-.25 8.754-.058 2.574c-.298 9.054-1.764 17.773-7.428 25.098-5.881 4.911-11.056 6.126-18.617 6.133l-3.999.007-4.259-.014-2.164-.006-27.586-.432-2.648-.068c-5.751-.253-9.989-1.317-14.52-5.127l-1.395-1.617-1.418-1.57c-5.06-8.362-4.83-17.029-4.707-26.555l.028-4.584c.136-15.441.89-30.859 1.639-46.279l1.304-37.148c.167-6.808.432-13.594.842-20.391.55-9.331.821-18.656.905-28.003l.103-5.515.114-8.104.084-2.484c.056-2.597.056-2.597-.705-6.243-2.794-2.539-2.794-2.539-6-4-11.54-8.987-16.398-23.396-20-37l-.711-2.66c-5.393-22.158-2.509-45.228 8.594-65.098C356.517 173.552 367.55 163.318 380 157h2l-.875 8-.271 2.468-1.659 13.807c-1.652 12.707-2.284 25.167-2.319 37.975l-.014 3.685.006 3.456.003 3.126c-.037 2.485-.037 2.485 1.129 4.483 17.366 1.432 32.413-2.802 50-6l2-89z" fill="#fefdfd"/><path d="M319 285l-1 21 9.513-2.633c3.328-.902 6.011-1.367 9.487-1.367.225 12.176.015 24.272-.746 36.428l-2.289 43.556-.128 2.82-1.162 25.847-.649 14.36-.24 5.392-.336 7.463-.093 2.194c-.207 4.406-.728 8.54-1.356 12.94h-19l-1 26-11.937-.437-24.637-.816-2.148-.062-4.277-.123c-12.013-.346-24.005-.802-36-1.561.55-21.91 1.478-43.78 2.671-65.664l1.345-25.199.132-2.508 2.256-50.682.104-2.721.176-4.854c.197-5.163.7-10.242 1.316-15.372 10.815-3.65 21.639-7.231 32.637-10.301 10.931-3.057 21.717-6.392 32.456-10.071l2.907-.991 2.563-.884c3.124-.965 6.156-1.753 9.438-1.753z" fill="#fdfdfd"/><path d="M592 248l-2.133 102.081-1.492 61.794-.031 2.099L588 439c-15.541.048-31.074.047-46.61-.372l-7.63-.184-4.92-.127-2.272-.051c-3.1-.09-5.606-.278-8.568-1.266l2.5-105.75.1-2.849L523 266c2.835-1.461 5.376-2.446 8.492-3.148l2.614-.602 2.769-.625c7.26-1.683 14.432-3.484 21.582-5.586l12.918-3.664 2.235-.625L580 250l2.177-.593c3.425-.901 6.255-1.407 9.823-1.407z" fill="#030303"/><path d="M825.425 128.029l2.577 1.295 2.98 1.486 3.236 1.637 3.437 1.72 7.394 3.714 11.765 5.907 18.691 9.385 33.25 16.691 11.617 5.835 43.739 21.403L968 199v21l6 2 17 9v53c-6.749-2.25-6.749-2.25-9.965-3.717l-2.199-.998-2.344-1.074-2.502-1.137-5.332-2.429-14.272-6.489-2.923-1.327-26.776-11.954-41.958-19.03L854 223l-1 4v-64l-26.836 7.52C824 171 824 171 820 171l-1-43-4-1c4.053-1.351 6.542-.619 10.425 1.029z" fill="#6a6a6a"/><path d="M209 318l-1 17 6.313-2c6.313-2 6.313-2 9.688-2l-1.312 28.875-.1 2.189L218 454h-16v21l-15.039-.372-5.097-.125c-10.317-.247-20.577-.643-30.864-1.503-.097-6.433.176-12.615 1-19h-13c.426-20.596 1.079-41.152 2.265-61.718.79-13.755 1.312-27.51 1.735-41.282l13-3 .227-3.176.398-4.137.137-2.092c.215-2.021.215-2.021 1.238-5.596 4.685-3.47 10.969-4.49 16.563-5.937l5.91-1.574 2.875-.767c6.315-1.717 12.585-3.621 18.746-5.831C205 318 205 318 209 318z" fill="#fcfcfc"/><path d="M776 324v122c-19.593 0-19.593 0-28.66-.402l-3.031-.127-6.233-.27-9.496-.402-6.115-.264-2.829-.117c-4.573-.206-9.059-.562-13.594-1.179-3.999-.469-8.022-.614-12.042-.802l-2.637-.131L685 442l.5-79.187.036-2.316L686 332l64.688-6.812 3.617-.374 3.394-.333 2.839-.284c5.146-.291 10.308-.196 15.462-.196z" fill="#030303"/><path d="M855 444l33.366.574 8.087.141 2.064.036 26.226.441 14.939.249 7.031.113c14.782.232 29.522.709 44.287 1.446v40l-64.677 3.709c-4.65.131-9.26.349-13.894.771-6.249.533-12.491.826-18.757 1.055l-3.001.116-10.92.411L855 494v-50z" fill="#6a6a6a"/><path d="M776 203v71l-16.437 2.25-33 4.875-23.187 3.625-2.568.387-2.408.347-2.073.304c-3.097.282-6.216.212-9.326.212v-63l44.813-10.687c9.056-1.91 18.014-3.992 26.94-6.432C764.589 204.298 769.906 203 776 203zM309 318c.201 13.1-.426 26.141-1.059 39.223l-.329 6.955-.694 14.485-.881 18.551-.682 14.322-.324 6.843-.459 9.54-.131 2.838-.132 2.637-.109 2.271c-.241 2.797-.74 5.567-1.201 8.336h-45c-.273-21.12.723-42.108 1.796-63.194l.557-11.318.543-10.985.257-5.205.366-7.244.102-2.122c.246-4.686.754-9.285 1.378-13.933 6.143-2.15 12.3-3.913 18.625-5.437l22.602-5.863C307 318 307 318 309 318z" fill="#030303"/><path d="M130 340l-4.062 104.625-.122 2.499c-.408 8.317-.882 16.598-1.816 24.876h-20a500.2 500.2 0 0 1 .621-28.437l.195-4.01.411-8.329.518-10.548.404-8.257.281-5.738L108 382h-4l-.367 1.723c-1.046 4.82-2.225 9.551-3.633 14.277l-11 1c-1.573-3.933-2.427-6.896-3-11l-4-1 .032 1.625c.268 16.484-.279 32.908-.969 49.375l-.132 3.21-.395 9.228-.117 2.776C80.147 459.171 79.638 465.07 79 471l-18-1c-.26-37.05 1.194-74 3-111l7.813-2.5 2.236-.723C77.133 354.801 79.745 354 83 354v11l7-1 2 12 5-1 .445-2.773.68-3.602.633-3.586C100 362 100 362 102.93 360.586 106 360 106 360 109 360v-15l3.43-.84 4.445-1.098 2.262-.553C129.267 340 129.267 340 130 340z" fill="#fcfbfb"/><path d="M455 133c8.037 1.405 15.761 3.569 23.563 5.938l1.936.586C567.593 165.935 567.593 165.935 582 192c-.399 2.183-.399 2.183-1 4l-2.022.531c-11.885 3.135-23.739 6.321-35.478 9.969-8.395 2.602-16.827 5.02-25.312 7.313l-3.234.879c-6.279 1.679-12.561 3.126-18.953 4.309l-.044-2.332c-.579-27.342-2.847-52.617-23.518-72.59-5.242-4.469-11.022-7.632-17.437-10.078v-1z" fill="#373738"/><path d="M825.425 128.029l2.577 1.295 2.98 1.486 3.236 1.637 3.437 1.72 7.394 3.714 11.765 5.907 18.691 9.385 33.25 16.691 11.617 5.835 43.739 21.403L968 199v21c-12.843-6.013-25.54-12.246-38.173-18.686l-15.521-7.861-19.586-9.942-15.997-8.104-6.051-3.084-8.438-4.265-2.486-1.3c-7.407-3.644-12.565-2.506-20.422-.348l-3.012.811-3.066.842-6.109 1.66-2.702.742C824 171 824 171 820 171l-1-43-4-1c4.053-1.351 6.542-.619 10.425 1.029z" fill="#39393a"/><path d="M199 347c.363 20.458-.638 40.751-1.854 61.162l-.851 14.734L195 445h-34c-.175-16.188.407-32.303 1.172-48.468l.49-10.96.391-8.547.262-5.987c.294-5.974.648-11.391 2.684-17.038l3.367-.77 4.508-1.043 2.355-.546c4.944-1.164 9.787-2.474 14.594-4.126 2.757-.653 5.351-.547 8.176-.516z" fill="#030303"/><path d="M762 360v71c-19 0-19 0-41-2v-66c4.498-1.499 9.135-1.393 13.84-1.605 9.684-.487 16.319-1.395 27.16-1.395z" fill="#373738"/><path d="M578 286l-.504 60.997-1.058 48.753-.067 4.094L576 423h-22c-.078-7.911-.004-15.733.477-23.629.564-9.982.755-19.958.912-29.954.42-26.159 1.433-52.283 2.611-78.417l6.188-1.937 3.48-1.09C574.426 286 574.426 286 578 286z" fill="#363637"/><path d="M387 141c4.757-.252 8.253.551 12.711 2.188l1.858.673 5.806 2.14 3.965 1.445L421 151c.206 50.172.206 50.172-1 69-26.616 8.09-26.616 8.09-33 7-4.041-4.588-3.377-9.806-3.25-15.562l.042-3.122L384 199l.047-2.499c.239-11.747 1.539-23.349 2.953-35.001l.272-2.239c1.64-13.394 1.64-13.394 2.728-17.261l-4 1 1-2z" fill="#39393a"/><path d="M411.125 337.938l3.766.014L424 338v11h-26l.041 9.237c.016 10.669-.287 21.31-.697 31.97l-.202 5.493-.533 14.218-.543 14.604L395 453h-11l.787-40.208.405-20.849.249-12.628.113-5.928c.214-11.489.608-22.925 1.446-34.387 8.055-1.032 16.013-1.119 24.125-1.062z" fill="#c0bfbf"/><path d="M762 241v21l-14.679 2.136-4.99.728-7.186 1.042-2.242.331c-3.713.531-7.131.762-10.903.762v-17c6.495-1.856 12.996-3.491 19.563-5.062l3.365-.814 3.264-.783 2.944-.707C758.529 241 758.529 241 762 241z" fill="#333"/><path d="M456 285c1.293 2.585 1.076 4.4.23 7.129-5.67 8.622-23.292 11.584-32.73 13.621-17.839 3.307-36.213 1.447-53.5-3.75l-2 4v-12l8.594 2.246c25.216 5.581 54.771 2.945 77.422-9.965L456 285z" fill="#c1c0c0"/><path d="M854 223c7.99 2.383 15.43 5.817 22.974 9.319l11.788 5.435 2.399 1.105 20.902 9.453 41.721 18.802 2.561 1.159 5.035 2.291a487.6 487.6 0 0 0 13.311 5.84l2.803 1.2 5.347 2.227c2.184.942 4.192 1.831 6.159 3.169 1.049 2.765 1.049 2.765 1 5-6.22-1.944-12.129-4.27-18.047-6.992l-2.548-1.158-8.155-3.725-5.692-2.59-8.553-3.892-23.317-10.517-3.463-1.55-6.8-3.042-10.694-4.794L854 228v-5z" fill="#b9b9b9"/><path d="M855 440c26.7-.14 53.372.18 80.065.8l15.26.336 11.929.265 5.637.123 7.786.179 2.299.046c4.094.105 8.004.471 12.025 1.251v4c-14.986.056-29.959-.109-44.941-.402l-6.684-.127-13.878-.27-17.701-.336-13.752-.265-6.527-.123c-21.686-.399-21.686-.399-31.517-1.476v-4z" fill="#b7b7b7"/><path d="M474 295h3c.463 31.197-.731 62.374-1.725 93.55l-.628 20.164-.609 19.596-.191 6.143L472 482h-1l-1-11h-1l1.513-58.212.703-27.037.614-23.601.324-12.464L474 295z" fill="#333334"/><path d="M354 305h1c.214 24.889-.335 49.69-1.332 74.558l-.914 23.548-.099 2.577L351 465h-1l-1-24h-1l3.386-80.592.885-18.788L354 305z" fill="#2f2f2f"/><path d="M471 390h1l1 21h1l-.372 19.727-.125 6.679c-.272 14.879-.745 29.732-1.503 44.595h-1l-1-11h-1l2-81z" fill="#2b2b2c"/><path d="M354 305h1c.303 22.604-.199 45.161-1 67.75l-.072 2.045L353 400h-1c-1.082-20.842-.795-41.364.322-62.191l.563-11.168L354 305z" fill="#282929"/></svg>