<?xml version="1.0" encoding="utf-8" ?>
<svg xmlns="http://www.w3.org/2000/svg" xmlns:xlink="http://www.w3.org/1999/xlink" width="1200" height="1200">
	<path fill="#FFFFFF" d="M383.357 338.469L820.373 338.433C828.769 366.169 839.877 393.429 849.298 420.86L922.114 630.373C924.747 637.796 928.178 644.776 931.032 652.096C935.191 662.763 938.703 673.744 942.547 684.533C945.999 694.223 949.965 703.944 952.852 713.811L954.138 717.192L955.509 720.559C951.188 723.278 946.928 726.094 942.732 729.003L941 730.075C939.011 731.427 936.761 732.712 934.941 734.268L932.508 735.707L921.4 743.218L920.488 743.847L894.718 761.016L893.557 761.839L883.695 768.362L882.994 768.993L880.076 770.596C871.119 774.613 862.394 781.76 854.187 787.24L802.822 821.543L601.723 956.689C589.698 947.585 576.362 939.815 563.899 931.277L482.977 876.312L248.3 720.549L383.357 338.469ZM702.839 682.001C693.07 672.252 683.897 662.095 674.305 652.22L606.671 583.413L570.025 546.946C564.464 541.521 558.242 537.049 553.297 531.026L603.592 480.722C598.456 475.039 591.883 469.908 587.297 463.922C571.319 464.124 555.079 462.15 539.113 461.158C532.673 460.758 526.532 460.114 520.058 460.416C515.933 464.798 511.365 468.368 506.931 472.387C500.502 478.214 494.209 484.294 487.857 490.217L424.936 549.111C432.305 555.59 439.045 562.911 445.987 569.849C456.719 580.576 467.573 591.2 478.198 602.031C492.953 587.44 509.607 574.511 523.73 559.287C535.367 569.124 545.409 580.842 555.741 591.988C561.956 598.692 568.706 604.89 575.057 611.462C578.498 615.024 581.586 618.909 585.025 622.486L640.599 680.496C647.107 687.385 654.28 693.689 660.536 700.799C663.823 704.544 667.15 708.253 670.518 711.926C648.544 726.065 625.743 731.001 599.83 730.936C588.691 730.908 578.121 730.155 567.214 727.78C545.781 723.113 525.105 715.471 505.789 705.075C497.239 700.462 488.667 694.12 479.697 690.575C482.157 688.114 484.022 685.466 485.968 682.6C484.181 681.148 482.347 679.675 480.72 678.044C477.497 674.814 473.133 667.599 467.722 668.328C465.635 668.609 463.657 670.358 461.978 671.565C457.768 667.764 453.764 663.978 450.196 659.559C443.748 664.656 436.726 669.606 430.945 675.44C433.797 680.527 439.237 683.701 442.644 688.478C433.018 694.274 400.084 724.629 392.586 733.486C390.241 736.256 387.817 739.47 386.865 743.012C385.064 749.707 386.102 757.257 389.709 763.157C393.769 769.797 400.239 775.377 407.915 777.199C413.407 778.502 419.096 777.844 423.877 774.746C435.381 767.289 460.74 728.33 468.04 715.295C468.232 715.426 468.424 715.554 468.614 715.686C472.227 718.203 475.236 721.507 478.537 724.417C485.986 730.982 493.373 737.376 501.573 743.016C539.169 768.88 589.661 779.611 634.596 771.925C657.372 768.03 682.836 758.518 701.53 744.737C707.056 748.884 710.814 753.934 715.428 758.968C719.552 763.468 723.977 767.656 728.054 772.217C731.518 776.091 734.831 780.612 739.078 783.601C739.248 783.721 739.415 783.846 739.583 783.969C748.423 784.88 753.363 782.882 760.13 777.391C765.102 773.357 770.674 766.854 771.329 760.214C771.798 755.451 766.343 750.204 763.386 746.896C754.196 736.615 744.331 725.608 734.482 716.001C769.294 677.36 781.575 638.95 779.265 587.402C776.992 536.688 748.283 485.81 710.988 452.363C680.989 425.46 640.573 408.565 600.815 403.111C582.986 400.665 564.86 400.4 546.894 400.909C546.696 400.969 546.5 401.033 546.302 401.089C540.283 402.775 525.849 403.238 518.404 404.311C511.626 405.288 467.466 414.865 464.951 418.44C470.575 419.678 479.238 417.028 485.113 416.43C493.971 415.527 503.224 414.815 512.116 414.722C520.549 414.634 529.141 414.394 537.565 414.841C603.885 418.363 669.346 442.07 706.677 500.125C728.123 533.477 738.201 579.744 729.558 618.677C725.085 638.828 719.879 654.279 709.331 672.127C707.318 675.533 704.847 678.621 702.839 682.001Z"/>
	<path fill="#FFFFFF" d="M342.097 794.571L470.44 880.4C491.182 894.229 511.726 908.708 532.897 921.856C525.938 926.189 519.387 931.321 512.764 936.149L479.721 960.207L376.62 1035.17L278.433 1106.52L246.237 1129.91C240.8 1133.86 234.938 1137.66 229.816 1142L228.94 1142C234.59 1127.58 238.785 1112.31 243.544 1097.56L267.757 1023.12L342.097 794.571Z"/>
	<path fill="#FFFFFF" d="M858.895 796.085C861.094 799.461 870.844 828.819 871.17 832.873L872.082 834.964C872.816 837.32 873.563 839.673 874.321 842.022L875.65 846.101L877.248 850.788L878.751 854.901L879.211 856.441L879.495 857.303C880.269 859.971 882.404 864.766 882.172 867.392L883.221 869.53L885.767 876.952L885.989 877.439L887.552 881.865L887.605 882.428C888.853 886.874 893.447 897.484 893.429 901.438L893.988 903.008L894.81 904.735L896.314 909.969L906.658 941.041C908.517 946.693 911.25 953.091 911.863 959.01L912.527 959.73L913.964 964.123C919.649 980.108 924.546 996.421 929.784 1012.56L958.487 1100.77C962.951 1114.49 967.053 1128.44 971.972 1142L971.059 1142C960.411 1133.26 948.61 1125.49 937.45 1117.38L872.14 1069.99L669.48 922.802C710 896.545 749.793 869.101 789.967 842.314L834.526 812.635C842.622 807.244 851.251 802.088 858.895 796.085Z"/>
	<path fill="#FFFFFF" d="M600.417 0L600.842 0C603.104 9.52436 606.875 19.2775 609.937 28.5832L626.579 79.4638L683.044 253.404L698.668 301.287C701.599 310.215 705.328 319.457 707.164 328.665C682.651 329.537 657.906 328.816 633.356 328.815L493.224 328.837C502.306 303.669 510.011 277.843 518.276 252.386L570.48 91.6904C580.363 61.1659 589.639 30.2096 600.417 0Z"/>
	<path fill="#FFFFFF" d="M0 436.133C11.7275 436.867 23.7337 436.378 35.4938 436.374L98.1234 436.344L255.95 436.337C283.441 436.339 311.017 435.883 338.499 436.401C334.054 448.048 330.208 459.932 326.078 471.693L298.477 550.55C292.103 568.442 285.827 586.369 279.649 604.33C276.389 613.613 272.425 623.062 269.911 632.562L80.8617 495.359L27.2862 456.451C18.4822 450.031 9.4371 442.217 0 436.943L0 436.133Z"/>
	<path fill="#FFFFFF" d="M865.301 436.303C894.294 436.785 923.364 436.334 952.368 436.336L1199.81 436.437L1199.82 437.116C1191.9 441.609 1184.51 447.782 1177.15 453.171L1135.19 483.813C1080.53 524.063 1025.59 563.945 970.39 603.456L967.845 605.527C956.031 613.247 944.631 622.163 933.314 630.617L865.301 436.303Z"/>
</svg>
