<?xml version="1.0" encoding="UTF-8"?>
<svg width="512px" height="512px" viewBox="0 0 512 512" version="1.1" xmlns="http://www.w3.org/2000/svg" xmlns:xlink="http://www.w3.org/1999/xlink">
    <title>Logo</title>
    <defs>
        <linearGradient x1="50%" y1="0%" x2="50%" y2="100%" id="linearGradient-1">
            <stop stop-color="#000000" stop-opacity="0.5" offset="0%"></stop>
            <stop stop-color="#FFFFFF" stop-opacity="0.5" offset="50.9836477%"></stop>
            <stop stop-color="#000000" stop-opacity="0.5" offset="100%"></stop>
        </linearGradient>
        <rect id="path-2" x="0" y="0" width="512" height="512" rx="57"></rect>
        <radialGradient cx="50%" cy="50%" fx="50%" fy="50%" r="51.3043478%" gradientTransform="translate(0.5, 0.5), scale(1, 0.9746), rotate(90), translate(-0.5, -0.5)" id="radialGradient-3">
            <stop stop-color="#FF0000" offset="0%"></stop>
            <stop stop-color="#930000" offset="100%"></stop>
        </radialGradient>
    </defs>
    <g id="Logo" stroke="none" stroke-width="1" fill="none" fill-rule="evenodd">
        <g id="矩形">
            <use fill="#D8D8D8" xlink:href="#path-2"></use>
            <rect stroke="#000000" stroke-width="12" stroke-linejoin="square" fill="url(#linearGradient-1)" x="6" y="6" width="500" height="500" rx="57"></rect>
        </g>
        <g id="B" transform="translate(58, 44.8)" fill="#AA0000" fill-rule="nonzero">
            <path d="M160.4,133.2 C188,123.6 217.6,103.6 217.6,66.4 C217.6,2.4 144.4,1.2 108,1.2 L59.2,1.2 L0,0 L0,10 L8,10.8 C35.6,14 42.4,14.8 42.4,54.4 L42.4,232 C42.4,271.6 35.6,272.4 8,275.6 L0,276.4 L0,286.4 L59.2,285.2 L130.4,285.2 C180.4,285.2 234.4,266.8 234.4,204.4 C234.4,154 198.8,136.8 160.4,133.2 Z M120,12.4 C158,12.4 180.4,21.2 180.4,66.4 C180.4,109.2 160.8,130.4 128,130.4 L74.8,130.4 L74.8,12.4 L120,12.4 Z M130.4,274 L108,274 C85.6,274 74.8,265.6 74.8,233.6 L74.8,141.6 L112,141.6 C169.6,141.6 196.8,150.4 196.8,204.8 C196.8,261.2 170.4,274 130.4,274 Z" id="形状"></path>
        </g>
        <g id="Æ" transform="translate(54, 177.8)" fill="#AA0000" fill-rule="nonzero">
            <path d="M386.8,201.2 C381.6,264.4 368.8,275.2 318.4,275.2 L281.2,275.2 C250.8,275.2 242.4,263.6 242.4,242.4 L242.4,140.4 L286.4,140.4 C304.8,140.4 314.8,155.6 314.8,194.8 L324.8,194.8 L323.6,135.6 L324.8,82 L314.8,82 C312.8,122 302,130.4 286.4,130.4 L242.4,130.4 L242.4,12 L294.4,12 C353.6,12 366.4,17.6 374,66.8 L383.6,66.8 L380.4,30 L379.6,1.2 L208,1.2 L164.4,0 L164.4,9.2 L178.8,10 C188,10.4 191.6,13.6 191.6,18.4 C191.6,24.4 186.4,33.2 180,44 L64.4,236 C42.8,272 29.2,274.4 10.4,276.4 L0,277.6 L0,286.4 C14,285.6 33.6,285.2 52.8,285.2 C72,285.2 91.2,285.6 103.6,286.4 L103.6,277.6 L91.2,276.4 C79.6,275.2 69.6,270.4 69.6,258.4 C69.6,252.8 72,244.8 78,235.2 L122.4,161.2 L207.6,161.2 L207.6,205.6 C207.6,266 202,273.6 182,275.6 L153.2,278.4 L153.2,286.4 L215.2,285.2 L392.8,285.2 L394,249.2 L396.8,201.2 L386.8,201.2 Z M128.8,150.8 L207.6,19.6 L207.6,150.8 L128.8,150.8 Z" id="形状"></path>
        </g>
        <path d="M390.5,41.5386522 L403.789273,80.214324 L443.78444,81.232486 L412.01071,106.178194 L423.419039,145.498144 L390.5,122.214854 L357.580961,145.498144 L368.98929,106.178194 L337.21556,81.232486 L377.210727,80.214324 L390.5,41.5386522 Z" id="星形" stroke="#979797" fill="url(#radialGradient-3)"></path>
    </g>
</svg>